{"title":"Dear.God.No.DVDSCR.AC3.2.0-Leaked-SIC ","uid":7093716,"size":1494644775,"categoryP":"video","categoryS":"movies","magnet":"?xt=urn:btih:04904ae3226238597f773393d08e9197529e90de&amp;dn=Dear.God.No.DVDSCR.AC3.2.0-Leaked-SIC+&amp;tr=udp%3A%2F%2Ftracker.openbittorrent.com%3A80&amp;tr=udp%3A%2F%2Fopen.demonii.com%3A1337&amp;tr=udp%3A%2F%2Ftracker.coppersurfer.tk%3A6969&amp;tr=udp%3A%2F%2Fexodus.desync.com%3A6969","seeders":2,"leechers":2,"uploader":"HeroMaster","files":-1,"time":1331426029,"description":"Dear.God.No.DVDSCR.AC3.2.0-Leaked-SIC \n\nIMDB Link: &lt;a href=&quot;\nhttp://www.imdb.com/title/tt1947998/&quot; rel=&quot;nofollow&quot; target=&quot;_NEW&quot;&gt;\nhttp://www.imdb.com/title/tt1947998/&lt;/a&gt;\n\nDescription:\nA gang of outlaw bikers pull a home invasion on a disgraced Anthropologist hiding \na secret locked in his cabin basement.\n\nGeneral\nComplete name : F:downaldsdeargodDear.God.No.DVDSCR.AC3.2.0-Leaked-SIC.avi\nFormat : AVI\nFormat/Info : Audio Video Interleave\nFile size : 1.37 GiB\nDuration : 1h 21mn\nOverall bit rate : 2 407 Kbps\n\nVideo\nID : 0\nFormat : MPEG-4 Visual\nFormat profile : Advanced Simple@L5\nFormat settings, BVOP : Yes\nFormat settings, QPel : No\nFormat settings, GMC : No warppoints\nFormat settings, Matrix : Default (H.263)\nCodec ID : XVID\nCodec ID/Hint : XviD\nDuration : 1h 21mn\nBit rate : 2 208 Kbps\nWidth : 720 pixels\nHeight : 400 pixels\nDisplay aspect ratio : 16:9\nFrame rate : 23.976 fps\nColor space : YUV\nChroma subsampling : 4:2:0\nBit depth : 8 bits\nScan type : Progressive\nBits/(Pixel*Frame) : 0.320\nStream size : 1.26 GiB (92%)\nWriting library : XviD 1.2.1 (UTC 2008-12-04)\n\nAudio\nID : 1\nFormat : AC-3\nFormat/Info : Audio Coding 3\nMode extension : CM (complete main)\nCodec ID : 2000\nDuration : 1h 21mn\nBit rate mode : Constant\nBit rate : 192 Kbps\nChannel(s) : 2 channels\nChannel positions : Front: L R\nSampling rate : 48.0 KHz\nStream size : 112 MiB (8%)\nAlignment : Aligned on interleaves\nInterleave, duration : 64 ms (1.53 video frames)\nInterleave, preload duration : 512 ms\nTitle : dgn_2.0_192k\n\n\nPoster:\n\n &lt;a href=&quot;\nhttp://www.shotpix.com/images/69110728565610921888.jpg&quot; rel=&quot;nofollow&quot; target=&quot;_NEW&quot;&gt;\nhttp://www.shotpix.com/images/69110728565610921888.jpg&lt;/a&gt;\n\n\nScreens:\n\n &lt;a href=&quot;\nhttp://www.shotpix.com/images/68869462490091208256.jpg&quot; rel=&quot;nofollow&quot; target=&quot;_NEW&quot;&gt;\nhttp://www.shotpix.com/images/68869462490091208256.jpg&lt;/a&gt;\n\n &lt;a href=&quot;\nhttp://www.shotpix.com/images/25231517272484371860.jpg&quot; rel=&quot;nofollow&quot; target=&quot;_NEW&quot;&gt;\nhttp://www.shotpix.com/images/25231517272484371860.jpg&lt;/a&gt;\n\n &lt;a href=&quot;\nhttp://www.shotpix.com/images/62854266545597453039.jpg&quot; rel=&quot;nofollow&quot; target=&quot;_NEW&quot;&gt;\nhttp://www.shotpix.com/images/62854266545597453039.jpg&lt;/a&gt;\n\n\nENJOY!","torrent":{"xt":"urn:btih:04904ae3226238597f773393d08e9197529e90de","amp;dn":"Dear.God.No.DVDSCR.AC3.2.0-Leaked-SIC+","amp;tr":["udp%3A%2F%2Ftracker.openbittorrent.com%3A80","udp%3A%2F%2Fopen.demonii.com%3A1337","udp%3A%2F%2Ftracker.coppersurfer.tk%3A6969","udp%3A%2F%2Fexodus.desync.com%3A6969"],"infoHash":"04904ae3226238597f773393d08e9197529e90de","infoHashBuffer":{"type":"Buffer","data":[4,144,74,227,34,98,56,89,127,119,51,147,208,142,145,151,82,158,144,222]},"announce":[],"urlList":[]}}